<?xml version="1.0" encoding="UTF-8" standalone="no"?>
<!-- Created with Inkscape (http://www.inkscape.org/) -->

<svg
   xmlns:dc="http://purl.org/dc/elements/1.1/"
   xmlns:cc="http://creativecommons.org/ns#"
   xmlns:rdf="http://www.w3.org/1999/02/22-rdf-syntax-ns#"
   xmlns:svg="http://www.w3.org/2000/svg"
   xmlns="http://www.w3.org/2000/svg"
   xmlns:sodipodi="http://sodipodi.sourceforge.net/DTD/sodipodi-0.dtd"
   xmlns:inkscape="http://www.inkscape.org/namespaces/inkscape"
   width="265.64624"
   height="280.94931"
   id="svg2"
   version="1.1"
   inkscape:version="0.48.2 r9819"
   sodipodi:docname="libearth.svg">
  <defs
     id="defs4" />
  <sodipodi:namedview
     id="base"
     pagecolor="#ffffff"
     bordercolor="#666666"
     borderopacity="1.0"
     inkscape:pageopacity="0.0"
     inkscape:pageshadow="2"
     inkscape:zoom="1"
     inkscape:cx="357.99797"
     inkscape:cy="70.992725"
     inkscape:document-units="px"
     inkscape:current-layer="layer1"
     showgrid="false"
     fit-margin-top="1"
     fit-margin-left="1"
     fit-margin-right="1"
     fit-margin-bottom="1"
     inkscape:window-width="1337"
     inkscape:window-height="857"
     inkscape:window-x="0"
     inkscape:window-y="0"
     inkscape:window-maximized="0" />
  <metadata
     id="metadata7">
    <rdf:RDF>
      <cc:Work
         rdf:about="">
        <dc:format>image/svg+xml</dc:format>
        <dc:type
           rdf:resource="http://purl.org/dc/dcmitype/StillImage" />
        <dc:title />
      </cc:Work>
    </rdf:RDF>
  </metadata>
  <g
     inkscape:label="Layer 1"
     inkscape:groupmode="layer"
     id="layer1"
     transform="translate(-206.5725,-201.3378)">
    <path
       style="fill:#000000"
       d="m 224.31596,477.46931 c -0.57755,-2.0625 -1.70697,-8.35054 -2.50983,-13.97343 -0.9608,-6.72904 -2.35458,-11.98931 -4.07774,-15.3898 -1.82816,-3.60771 -2.78781,-7.41172 -3.18087,-12.60888 -0.41622,-5.50333 -1.17321,-8.3419 -2.9053,-10.89428 -1.90525,-2.80754 -2.07272,-3.55525 -0.89733,-4.00629 3.54137,-1.35895 6.57721,4.48874 7.6006,14.64039 0.49825,4.9424 1.61822,9.15151 3.25335,12.22675 1.37144,2.57933 3.02907,7.967 3.68361,11.97262 0.65455,4.00561 1.76163,10.30687 2.46017,14.0028 0.69854,3.69593 1.03152,6.95843 0.73994,7.25 -1.48239,1.48239 -3.22748,0.13382 -4.1666,-3.21987 z m 238.81228,-0.92667 c -0.0866,-1.00282 -0.0751,-2.49832 0.0257,-3.32333 0.10076,-0.825 0.37418,-7.07831 0.60759,-13.89623 0.32351,-9.44935 0.0851,-13.05239 -1.00292,-15.15637 -1.61745,-3.12781 -2.44701,-20.14204 -1.15541,-23.6974 0.7423,-2.04332 0.51266,-2.25202 -2.5,-2.27195 -1.82457,-0.0121 -5.27903,-0.91208 -7.67659,-2 -2.70739,-1.22851 -6.49665,-1.9742 -10,-1.96792 -3.27393,0.006 -8.27266,-0.91422 -11.91313,-2.19281 -5.3631,-1.8836 -6.7505,-2.03004 -9.571,-1.01012 -1.81427,0.65604 -6.6754,1.19281 -10.80252,1.19281 -5.37735,0 -9.58682,0.70847 -14.85415,2.5 -6.4686,2.20011 -9.0387,2.5 -21.42553,2.5 -8.624,0 -16.78612,0.57421 -21.07484,1.48264 -8.84066,1.87259 -28.92141,1.92524 -37.49963,0.0983 -3.575,-0.76138 -11.38729,-3.24589 -17.36063,-5.52113 l -10.86064,-4.1368 -6.63936,3.40503 c -6.62566,3.398 -6.67655,3.40636 -24.63937,4.04802 -9.9,0.35365 -23.34679,0.92909 -29.88177,1.27876 -9.91826,0.5307 -11.80537,0.40519 -11.41947,-0.75953 0.30439,-0.91872 2.82574,-1.62725 7.38177,-2.07437 3.80571,-0.37349 11.19447,-1.15319 16.41947,-1.73267 5.225,-0.57948 14.94468,-1.0614 21.5993,-1.07093 11.89009,-0.017 12.21333,-0.0779 18.69467,-3.51733 3.62746,-1.925 7.51123,-3.5 8.63061,-3.5 1.11937,0 6.65677,1.8496 12.30532,4.11021 16.89973,6.76347 33.8097,8.57073 50.43213,5.38996 4.50389,-0.86184 13.45799,-1.4999 21.04987,-1.5 11.43505,-1.5e-4 14.25932,-0.34164 21,-2.53922 5.56459,-1.81415 11.72856,-2.83049 21.58999,-3.55985 12.85785,-0.95097 14.20902,-0.8799 19.75399,1.03906 3.27364,1.13291 8.31279,2.06007 11.1981,2.06034 2.88531,2.8e-4 7.61335,0.90028 10.50675,2 6.41325,2.43755 7.73309,2.47468 10.61786,0.2987 l 2.25481,-1.70081 -2.78228,-7.04919 c -1.53025,-3.87706 -2.79777,-7.60838 -2.8167,-8.29183 -0.0385,-1.3908 -11.18903,-30.67215 -16.09185,-42.25737 -1.74569,-4.125 -3.48292,-8.85 -3.86053,-10.5 -0.61494,-2.68704 -1.04623,-2.97525 -4.1343,-2.76274 -1.89626,0.13049 -17.58347,0.39697 -34.86047,0.59218 -25.591,0.28914 -31.93747,0.0931 -34.24414,-1.05758 -3.22147,-1.60709 -7.34313,-1.36438 -7.34313,0.4324 0,0.66234 -1.6875,3.22304 -3.75,5.69045 -4.24157,5.07428 -4.54485,6.21824 -1.8733,7.06615 1.03218,0.32761 4.40966,2.72043 7.50552,5.31739 10.41972,8.7406 12.10496,9.92848 15.78779,11.12836 4.53264,1.47674 6.62944,3.69394 5.01764,5.30574 -0.83679,0.83679 -2.14102,0.79313 -5.05715,-0.16928 -4.56486,-1.50654 -18.07913,-0.62279 -22.1305,1.4472 -3.79619,1.93961 -18.68948,3.01233 -20.53678,1.47921 -1.05002,-0.87144 -3.42009,-1.04518 -7.94031,-0.58207 -5.41515,0.5548 -7.17749,0.31515 -11.04243,-1.50159 l -4.59891,-2.16174 -1.53734,2.19486 c -1.80186,2.57251 -5.65498,2.46679 -6.15734,-0.16894 -0.2254,-1.18263 0.29896,-1.75 1.61734,-1.75 1.07298,0 2.51108,-0.675 3.19577,-1.5 0.68469,-0.825 2.08979,-1.5 3.12244,-1.5 1.03266,0 1.8616,-0.3375 1.84209,-0.75 -0.34305,-7.25446 -3.06722,-18.36578 -5.30538,-21.63955 -1.46257,-2.13925 -2.65919,-4.43763 -2.65919,-5.10754 0,-2.36942 -25.7954,-3.51599 -31.8237,-1.41452 -2.27799,0.79411 -5.58691,0.76803 -12.23824,-0.0964 -7.08468,-0.92081 -10.54746,-0.91475 -15.53949,0.0272 -3.53286,0.6666 -6.64326,1.56775 -6.91198,2.00255 -0.26872,0.4348 -1.28595,0.58202 -2.26051,0.32718 -2.96756,-0.77605 -5.94228,6.96337 -7.22679,18.80216 -1.29242,11.91168 -3.46442,20.31728 -6.13169,23.72951 -1.85436,2.37228 -3.09966,6.23035 -4.3223,13.39083 -0.35417,2.07426 -1.92611,5.2317 -3.49321,7.01651 -1.56709,1.78482 -3.36224,5.1502 -3.98922,7.47862 -0.69427,2.57828 -1.72361,4.23344 -2.6328,4.23344 -3.71417,0 -2.43432,-6.93313 2.55,-13.81379 1.72666,-2.38357 3.3633,-6.44312 4.09307,-10.15242 0.66879,-3.3994 2.24579,-7.69824 3.50445,-9.55298 2.83512,-4.17778 5.01802,-12.26535 6.44262,-23.86971 0.77712,-6.33016 1.9729,-10.64805 4.15404,-15 1.68453,-3.3611 3.20494,-6.26907 3.37868,-6.46217 0.17373,-0.19308 2.0329,-0.55573 4.13148,-0.80586 2.09857,-0.25014 6.19768,-0.868 9.10912,-1.37302 2.91144,-0.50503 10.1346,-0.64124 16.05148,-0.30271 7.06428,0.40419 11.4638,0.23777 12.81377,-0.48471 1.47665,-0.79028 6.34414,-0.81561 17.2774,-0.0899 17.44521,1.15792 20.47573,0.59918 25.25881,-4.65706 4.21361,-4.63045 8.43148,-5.76319 21.80501,-5.85592 l 11.5,-0.0797 1.04839,4.34741 c 1.29453,5.36816 2.9503,6.37266 8.72587,5.29367 2.92514,-0.54648 5.20443,-0.45586 6.54447,0.26019 2.34873,1.25506 60.54951,1.3302 68.4232,0.0883 5.54004,-0.87379 7.29777,0.13817 8.3194,4.78961 0.37943,1.72756 1.58264,5.18397 2.67378,7.68089 3.77687,8.64282 12.89394,32.60109 17.81882,46.82511 5.02226,14.50527 5.94647,19.64443 3.69607,20.5525 -0.74674,0.30132 -0.54544,0.53617 0.5,0.58333 2.44394,0.11026 2.18237,1.78089 -0.5,3.19347 -3.40069,1.79086 -3.71811,2.74067 -3.73469,11.17532 -0.0114,5.79678 0.48816,8.77672 1.95249,11.64704 1.73326,3.39747 1.91805,5.38913 1.55042,16.71017 -0.22956,7.06912 -0.80993,14.20295 -1.28972,15.85295 -0.98579,3.39017 -4.13746,4.70036 -4.38603,1.82332 z M 355.28577,371.71035 c 1.375,-0.67723 4.6375,-1.54234 7.25,-1.92246 2.6125,-0.38011 4.71638,-1.00105 4.67529,-1.37984 -0.0411,-0.37881 -3.37502,-3.61373 -7.40873,-7.18874 -8.49348,-7.5276 -11.78937,-8.76569 -25.3112,-9.50808 -9.96938,-0.54734 -12.09139,-1.23096 -16.45536,-5.3012 -6.15656,-5.74217 -1.56216,-6.93694 7.75,-2.01537 4.81822,2.54647 7.52657,3.26073 13.75056,3.62637 6.93838,0.4076 8.11563,0.20607 11.23434,-1.9232 3.78787,-2.58613 5.08016,-4.71346 3.70105,-6.09257 -2.22526,-2.22526 -15.71965,-6.78492 -20.03956,-6.77122 -7.63193,0.0242 -21.24833,5.20257 -22.54155,8.57266 -0.25184,0.65627 0.40905,2.12377 1.46864,3.2611 1.05958,1.13734 1.92652,2.56702 1.92652,3.17708 0,0.65413 0.82055,0.84877 2,0.47443 1.56263,-0.49596 2,-0.1797 2,1.44618 0,1.14453 -0.5421,2.94899 -1.20466,4.00992 -0.94378,1.51123 -0.92112,3.61974 0.10463,9.73643 0.72011,4.29411 1.79735,8.11165 2.39387,8.48343 0.59652,0.37177 4.08276,0.42459 7.74719,0.11738 4.04053,-0.33873 7.40965,-0.12847 8.56079,0.5343 2.32126,1.33644 14.81367,0.42889 18.39818,-1.3366 z m 1.5,-9.49104 c -0.33992,-0.55 -0.14148,-1 0.44098,-1 0.58246,0 1.05902,0.45 1.05902,1 0,0.55 -0.19844,1 -0.44098,1 -0.24254,0 -0.7191,-0.45 -1.05902,-1 z m -9.94625,-3.53555 c -1.50534,-1.13848 -1.6765,-1.74169 -0.75552,-2.66268 0.92098,-0.92098 1.64507,-0.70306 3.19625,0.96193 1.10304,1.18397 2.00552,2.39649 2.00552,2.69449 0,1.03222 -2.50889,0.47148 -4.44625,-0.99374 z M 345.1638,343.8458 c -2.10022,-1.85058 -4.24108,-2.43517 -10.75848,-2.93775 -8.30772,-0.64065 -12.63897,-2.03929 -11.58687,-3.74162 0.36974,-0.59825 1.28555,-0.57959 2.46227,0.0502 2.81224,1.50506 5.65557,1.22164 10.00505,-0.9973 2.15618,-1.1 4.17908,-2 4.49535,-2 0.31626,0 0.0933,0.9 -0.49535,2 -0.9756,1.82293 -0.76049,2 2.42963,2 2.47655,0 3.813,0.58483 4.57037,2 0.5887,1.1 0.71703,2.01368 0.28518,2.03041 -0.43185,0.0167 0.002,0.48908 0.96482,1.04969 1.7488,1.01858 2.41681,2.948 1,2.8883 -0.4125,-0.0174 -1.92989,-1.07124 -3.37197,-2.34191 z m 4.93496,-13.37649 c -0.27512,-1.44292 -1.56017,-1.78667 -7.32333,-1.95898 l -6.98966,-0.20898 4.76619,1.30851 c 2.6214,0.71968 5.0589,1.60122 5.41667,1.95898 1.44106,1.44106 4.46123,0.63703 4.13013,-1.09953 z m 63.69369,64.7608 c -1.67974,-2.71785 2.57363,-4.601 8.7711,-3.88333 3.29307,0.38135 1.06893,2.37253 -2.65009,2.37253 -2.0259,0 -4.06466,0.61054 -4.53057,1.35676 -0.64355,1.03072 -1.02575,1.06775 -1.59044,0.15404 z M 262.4588,364.24112 c -2.14286,-1.81141 -2.5141,-1.84444 -4.69218,-0.4173 -2.50018,1.63817 -6.60056,1.57826 -7.15174,-0.10451 -0.18015,-0.55 0.82338,-1.06653 2.23006,-1.14785 1.40668,-0.0813 3.35426,-0.86881 4.32795,-1.75 2.37966,-2.15356 4.42745,-2.01702 6.65435,0.44367 1.15235,1.27333 2.81564,1.93412 4.40499,1.75 1.73462,-0.20095 2.55354,0.18523 2.55354,1.20418 0,2.32569 -5.58424,2.34033 -8.32697,0.0218 z m 155.82697,-6.44848 c 0,-0.92764 0.855,-1.57333 2.08333,-1.57333 2.43705,0 2.09257,2.33677 -0.4162,2.82333 -0.98676,0.19137 -1.66713,-0.31876 -1.66713,-1.25 z m -49.13074,-55.86283 c -1.44691,-1.8176 -5.45441,-4.80972 -8.90555,-6.64915 -5.15183,-2.7459 -8.3498,-3.60833 -17.86926,-4.81894 -19.58276,-2.49039 -25.32007,-2.22153 -34.59445,1.62113 -4.4,1.82306 -8.49961,3.94957 -9.11024,4.72556 -1.96733,2.50008 -3.79673,1.45689 -8.38976,-4.78419 -2.475,-3.36306 -6.07168,-7.71415 -7.99263,-9.66908 -4.1011,-4.17366 -5.0579,-9.13583 -1.76155,-9.13583 1.10648,0 3.73354,-1.5555 5.83792,-3.45669 4.3683,-3.94649 9.91236,-6.96159 17.77471,-9.66662 4.47851,-1.54084 8.33467,-1.86923 21.5481,-1.83501 27.0857,0.0701 41.58827,4.12111 54.9702,15.35465 4.64788,3.9017 9.62325,10.40085 9.62325,12.57055 0,1.6459 -13.27601,18.03312 -14.60943,18.03312 -0.67485,0 -1.8263,0.22842 -2.55878,0.50761 -0.73249,0.2792 -2.51562,-0.97951 -3.96253,-2.79711 z m 10.50656,-9.09106 c 3.69831,-4.82848 5.43763,-7.94202 5.03002,-9.00421 -0.78618,-2.04877 -11.32526,-10.89883 -16.77972,-14.09056 -2.26937,-1.32794 -8.51904,-3.36493 -13.88816,-4.52664 -8.49116,-1.83722 -12.39675,-2.07222 -30,-1.80511 -19.81558,0.30067 -20.35357,0.36483 -25.7772,3.07436 -3.04659,1.52201 -7.60186,4.47173 -10.12283,6.55493 l -4.58357,3.78765 3.12282,3.52217 c 1.71755,1.93719 4.81128,5.59932 6.87495,8.13807 l 3.75213,4.61591 9.15594,-4.06407 c 8.08533,-3.58885 10.04367,-4.06451 16.74787,-4.0678 4.17556,-0.002 13.06005,0.69324 19.7433,1.54511 13.47185,1.71716 20.27439,4.28121 26.91618,10.14543 2.16285,1.90964 3.98257,3.49081 4.04383,3.51369 0.0613,0.0229 2.65526,-3.27963 5.76444,-7.33893 z M 396.955,256.20153 c -7.50142,-7.58219 -20.16101,-15.08855 -31.40554,-18.62156 -8.03446,-2.52442 -8.74519,-2.57543 -29,-2.08129 -34.11754,0.83234 -51.23462,5.33454 -65.58647,17.2508 l -5.82278,4.83463 -5.67722,-6.31762 c -5.67526,-6.31541 -11.17722,-13.72476 -11.17722,-15.05207 0,-1.22417 13.48894,-12.74959 19.92468,-17.02432 12.21231,-8.11164 18.65673,-10.69609 33.57532,-13.46494 17.20723,-3.19362 38.67072,-4.29584 50.36249,-2.58627 7.65553,1.11938 21.65799,5.40028 36.95429,11.29786 5.72867,2.20873 15.81356,8.7822 29.30811,19.10346 3.18517,2.43616 4.88319,4.44611 4.68537,5.54606 -0.17064,0.94885 -4.36146,5.55523 -9.31292,10.2364 -5.37269,5.07941 -8.87846,9.15616 -8.69463,10.11069 0.74371,3.86179 -2.31972,2.64453 -8.13348,-3.23183 z m 17.6345,-19.80769 c -7.82797,-6.55016 -21.53318,-15.65809 -26.92008,-17.88998 -11.1057,-4.60131 -28.88996,-10.09306 -36.7224,-11.33982 -16.22706,-2.583 -54.47009,1.60613 -66.93947,7.33253 -6.6583,3.05774 -17.68988,10.13823 -25.46294,16.34308 l -6.06267,4.83953 2.96106,3.73864 c 1.62858,2.05626 4.84694,5.81217 7.15191,8.34647 l 4.19086,4.60783 4,-3.43771 c 13.45903,-11.56706 36.39376,-17.07217 71.5,-17.16241 19.74681,-0.0508 20.74463,0.0426 27.15838,2.53994 10.43909,4.06475 25.99057,13.34826 29.19602,17.42867 l 2.85441,3.63353 8.14559,-8.15289 8.1456,-8.15289 z"
       id="path2996"
       inkscape:connector-curvature="0"
       sodipodi:nodetypes="cssssssssscccccssscscsssssssscsssssssssssssssssscscsssscssssssssssscsssssscssssscssssssssssscssssssscssssssssssssssccsscssssssssssssssscssssssssssssscsscsscsscccccsscssscsssccsscssssccssssssssssssssssssssssssssscsscscsscssssscsssssssssssssssscsscsssscccs" />
  </g>
</svg>
